HIERARCHY
ROOT hips
{
  OFFSET 0 10.6860622 2.3727825e-15
  CHANNELS 6 Xposition Yposition Zposition Yrotation Xrotation Zrotation
  JOINT leftUpperLeg
  {
    OFFSET 0.6642549969 -0.9402397400000004 0
    CHANNELS 3 Yrotation Xrotation Zrotation
    JOINT leftLowerLeg
    {
      OFFSET 0 -3.997221335632195 0
      CHANNELS 3 Yrotation Xrotation Zrotation
      JOINT leftFoot
      {
        OFFSET -0.13777839790000004 -4.6145792000000005 -0.22186036399999998
        CHANNELS 3 Yrotation Xrotation Zrotation
        JOINT leftToes
        {
          OFFSET -0.03777410834999995 -0.9130806927000008 0.85230013
          CHANNELS 3 Yrotation Xrotation Zrotation
          End Site
          {
            OFFSET -0.03777410834999995 -0.9130806927000008 0.85230013
          }
        }
      }
    }
  }
  JOINT rightUpperLeg
  {
    OFFSET -0.6642778626 -0.9402397400000004 0
    CHANNELS 3 Yrotation Xrotation Zrotation
    JOINT rightLowerLeg
    {
      OFFSET 0 -3.997221452859387 0
      CHANNELS 3 Yrotation Xrotation Zrotation
      JOINT rightFoot
      {
        OFFSET 0.1377926176 -4.6145792000000005 -0.22185782299999995
        CHANNELS 3 Yrotation Xrotation Zrotation
        JOINT rightToes
        {
          OFFSET 0.037780746850000047 -0.9130806927000008 0.85230167
          CHANNELS 3 Yrotation Xrotation Zrotation
          End Site
          {
            OFFSET 0.037780746850000047 -0.9130806927000008 0.85230167
          }
        }
      }
    }
  }
  JOINT spine
  {
    OFFSET 0 0.13988381660000015 0
    CHANNELS 3 Yrotation Xrotation Zrotation
    JOINT chest
    {
      OFFSET 0 0.6191039003973773 0
      CHANNELS 3 Yrotation Xrotation Zrotation
      JOINT upperChest
      {
        OFFSET 0 0.9855186130586943 0
        CHANNELS 3 Yrotation Xrotation Zrotation
        JOINT leftShoulder
        {
          OFFSET 0.1807663869 1.5087829790000005 0
          CHANNELS 3 Yrotation Xrotation Zrotation
          JOINT leftUpperArm
          {
            OFFSET 0.5985063006419806 0 0
            CHANNELS 3 Yrotation Xrotation Zrotation
            JOINT leftLowerArm
            {
              OFFSET 2.2993332369501065 0 0
              CHANNELS 3 Yrotation Xrotation Zrotation
              JOINT leftHand
              {
                OFFSET 2.395047042602395 0 0
                CHANNELS 3 Yrotation Xrotation Zrotation
                JOINT leftIndexProximal
                {
                  OFFSET 0.5766295810000004 0.04556643899499946 0.17265095988184
                  CHANNELS 3 Yrotation Xrotation Zrotation
                  JOINT leftIndexIntermediate
                  {
                    OFFSET 0.2957229000000008 -0.019352197700001517 -0.007932640616999987
                    CHANNELS 3 Yrotation Xrotation Zrotation
                    JOINT leftIndexDistal
                    {
                      OFFSET 0.19008243099999922 -0.012484908149998475 -0.002786250786000012
                      CHANNELS 3 Yrotation Xrotation Zrotation
                      End Site
                      {
                        OFFSET 0.19008243099999922 -0.012484908149998475 -0.002786250786000012
                      }
                    }
                  }
                }
                JOINT leftMiddleProximal
                {
                  OFFSET 0.5834975091000001 0.0524350405149987 0.02204081888183999
                  CHANNELS 3 Yrotation Xrotation Zrotation
                  JOINT leftMiddleIntermediate
                  {
                    OFFSET 0.33880573540000003 -0.019871473270000717 -0.00000971183179999946
                    CHANNELS 3 Yrotation Xrotation Zrotation
                    JOINT leftMiddleDistal
                    {
                      OFFSET 0.20676022730000088 -0.012221336379999448 0.0001471936708000235
                      CHANNELS 3 Yrotation Xrotation Zrotation
                      End Site
                      {
                        OFFSET 0.20676022730000088 -0.012221336379999448 0.0001471936708000235
                      }
                    }
                  }
                }
                JOINT leftLittleProximal
                {
                  OFFSET 0.5344154683999995 -0.012880921405001189 -0.24414037221816004
                  CHANNELS 3 Yrotation Xrotation Zrotation
                  JOINT leftLittleIntermediate
                  {
                    OFFSET 0.21758961730000093 -0.011650919939999227 0.011893592810000034
                    CHANNELS 3 Yrotation Xrotation Zrotation
                    JOINT leftLittleDistal
                    {
                      OFFSET 0.1475273964999999 -0.008152365682999818 0.006001092492999946
                      CHANNELS 3 Yrotation Xrotation Zrotation
                      End Site
                      {
                        OFFSET 0.1475273964999999 -0.008152365682999818 0.006001092492999946
                      }
                    }
                  }
                }
                JOINT leftRingProximal
                {
                  OFFSET 0.5799399463000003 0.026911854694997794 -0.12150566991816003
                  CHANNELS 3 Yrotation Xrotation Zrotation
                  JOINT leftRingIntermediate
                  {
                    OFFSET 0.26167887460000006 -0.013480186499999602 0.010996293000000053
                    CHANNELS 3 Yrotation Xrotation Zrotation
                    JOINT leftRingDistal
                    {
                      OFFSET 0.17667108799999987 -0.008990287899999228 0.0055541023999999065
                      CHANNELS 3 Yrotation Xrotation Zrotation
                      End Site
                      {
                        OFFSET 0.17667108799999987 -0.008990287899999228 0.0055541023999999065
                      }
                    }
                  }
                }
                JOINT leftThumbProximal
                {
                  OFFSET 0.11018806699999972 -0.09448718900500053 0.17047963138184
                  CHANNELS 3 Yrotation Xrotation Zrotation
                  JOINT leftThumbIntermediate
                  {
                    OFFSET 0.31062601459999983 -0.08126270900000132 0.15443142000000007
                    CHANNELS 3 Yrotation Xrotation Zrotation
                    JOINT leftThumbDistal
                    {
                      OFFSET 0.21627175790000086 -0.08833193599999878 0.018771167799999988
                      CHANNELS 3 Yrotation Xrotation Zrotation
                      End Site
                      {
                        OFFSET 0.21627175790000086 -0.08833193599999878 0.018771167799999988
                      }
                    }
                  }
                }
              }
            }
          }
        }
        JOINT neck
        {
          OFFSET 0 1.5463305265074576 0
          CHANNELS 3 Yrotation Xrotation Zrotation
          JOINT head
          {
            OFFSET 0 0.8456443600000344 0
            CHANNELS 3 Yrotation Xrotation Zrotation
            JOINT leftEye
            {
              OFFSET 0.30408573140000006 0.5104519199999995 0.1276382305
              CHANNELS 3 Yrotation Xrotation Zrotation
              End Site
              {
                OFFSET 0.30408573140000006 0.5104519199999995 0.1276382305
              }
            }
            JOINT rightEye
            {
              OFFSET -0.30409491089999996 0.5104519199999995 0.1276379445
              CHANNELS 3 Yrotation Xrotation Zrotation
              End Site
              {
                OFFSET -0.30409491089999996 0.5104519199999995 0.1276379445
              }
            }
            JOINT jaw
            {
              OFFSET -3.155239131000001e-7 -0.11984121820000082 0.60178107
              CHANNELS 3 Yrotation Xrotation Zrotation
              End Site
              {
                OFFSET -3.155239131000001e-7 -0.11984121820000082 0.60178107
              }
            }
          }
        }
        JOINT rightShoulder
        {
          OFFSET -0.1807303465 1.5087829790000005 0
          CHANNELS 3 Yrotation Xrotation Zrotation
          JOINT rightUpperArm
          {
            OFFSET -0.5985063796536958 0 0
            CHANNELS 3 Yrotation Xrotation Zrotation
            JOINT rightLowerArm
            {
              OFFSET -2.2993322059002854 0 0
              CHANNELS 3 Yrotation Xrotation Zrotation
              JOINT rightHand
              {
                OFFSET -2.395045314457259 0 0
                CHANNELS 3 Yrotation Xrotation Zrotation
                JOINT rightIndexProximal
                {
                  OFFSET -0.5764487688300002 0.0441371204405987 0.17361932004999997
                  CHANNELS 3 Yrotation Xrotation Zrotation
                  JOINT rightIndexIntermediate
                  {
                    OFFSET -0.29573011380000047 -0.01934826376999843 -0.007698921482999974
                    CHANNELS 3 Yrotation Xrotation Zrotation
                    JOINT rightIndexDistal
                    {
                      OFFSET -0.19008373999999884 -0.012503266380000655 -0.0026365778999999897
                      CHANNELS 3 Yrotation Xrotation Zrotation
                      End Site
                      {
                        OFFSET -0.19008373999999884 -0.012503266380000655 -0.0026365778999999897
                      }
                    }
                  }
                }
                JOINT rightMiddleProximal
                {
                  OFFSET -0.5834852037300005 0.05211639405060153 0.02307162440000001
                  CHANNELS 3 Yrotation Xrotation Zrotation
                  JOINT rightMiddleIntermediate
                  {
                    OFFSET -0.33880114510000003 -0.019952774050000954 0.0002455003561999819
                    CHANNELS 3 Yrotation Xrotation Zrotation
                    JOINT rightMiddleDistal
                    {
                      OFFSET -0.20675694929999955 -0.012273788999999091 0.00030209124000002766
                      CHANNELS 3 Yrotation Xrotation Zrotation
                      End Site
                      {
                        OFFSET -0.20675694929999955 -0.012273788999999091 0.00030209124000002766
                      }
                    }
                  }
                }
                JOINT rightLittleProximal
                {
                  OFFSET -0.5346811737299992 -0.011214256288399227 -0.24363941305000003
                  CHANNELS 3 Yrotation Xrotation Zrotation
                  JOINT rightLittleIntermediate
                  {
                    OFFSET -0.21757715980000092 -0.011771559690000988 0.01201554387
                    CHANNELS 3 Yrotation Xrotation Zrotation
                    JOINT rightLittleDistal
                    {
                      OFFSET -0.1475201849000004 -0.00822055339600003 0.006082065407000015
                      CHANNELS 3 Yrotation Xrotation Zrotation
                      End Site
                      {
                        OFFSET -0.1475201849000004 -0.00822055339600003 0.006082065407000015
                      }
                    }
                  }
                }
                JOINT rightRingProximal
                {
                  OFFSET -0.5800810755299999 0.027657985680600072 -0.12066365025000003
                  CHANNELS 3 Yrotation Xrotation Zrotation
                  JOINT rightRingIntermediate
                  {
                    OFFSET -0.26166445029999974 -0.013623118409999302 0.011164098990000045
                    CHANNELS 3 Yrotation Xrotation Zrotation
                    JOINT rightRingDistal
                    {
                      OFFSET -0.17666387530000027 -0.009072900100000503 0.005668185599999959
                      CHANNELS 3 Yrotation Xrotation Zrotation
                      End Site
                      {
                        OFFSET -0.17666387530000027 -0.009072900100000503 0.005668185599999959
                      }
                    }
                  }
                }
                JOINT rightThumbProximal
                {
                  OFFSET -0.10997596379000074 -0.09577489355940072 0.16989765924999997
                  CHANNELS 3 Yrotation Xrotation Zrotation
                  JOINT rightThumbIntermediate
                  {
                    OFFSET -0.31036620999999986 -0.08229339117999834 0.15440884469999996
                    CHANNELS 3 Yrotation Xrotation Zrotation
                    JOINT rightThumbDistal
                    {
                      OFFSET -0.21631306399999906 -0.08825326400000111 0.018656797720000014
                      CHANNELS 3 Yrotation Xrotation Zrotation
                      End Site
                      {
                        OFFSET -0.21631306399999906 -0.08825326400000111 0.018656797720000014
                      }
                    }
                  }
                }
              }
            }
          }
        }
      }
    }
  }
}
MOTION
Frames: 9
Frame Time: 0.03333333333333333
0 11.682712981546562 0 0 0 0 0 0 -5.826343164929014 -0.3712483961610101 -3.6333298826370974 5.838118207697276 0 0 0 0 0 0 0 0 5.826343164929014 0.3712483961610101 -3.6333298826370974 -5.838118207697276 0 0 0 0 0 0 0 -4.610651315171937 0 0 3.0831277533083026 0 0 0 0 0 1.5275236235667615 0 0 0 0 0 0 0 0 0 0 0 0 0 0 0 0 0 0 0 0 0 0 0 0 0 0 0 0 0 0 0 0 0 0 0 0 0 0 0 0 0 0 0 0 0 0 0 0 0 0 0 0 0 0 0 0 1.5275236235667615 0 0 0 0 0 0 0 0 0 0 0 0 0 0 1.5275236235667615 0 0 0 0 0 0 0 0 0 0 0 0 0 0 0 0 0 0 0 0 0 0 0 0 0 0 0 0 0 0 0 0 0 0 0 0 0 0 0 0 0 0 0 0 0 0 0 0 0 0 0 0 0 0 0
0.08787243480242343 -6.338994141869542 0.8924381195188898 0 30.9991512535037 0 -179.05103036123916 -50.27203850209213 -150.7833731269942 171.08693511672917 77.47711036279229 -174.85033747506938 10.210700710590787 -10.45322826205998 -3.952976189649201 0 0 0 179.0755859235738 -50.244122920484486 150.75552626622337 -170.9948984174384 77.46870257126483 174.89945840437713 -10.22149881953773 -10.449060145484854 3.9571275018898913 0 0 0 0 -10.441095647479067 0 -0.3342351353771369 10.00895311200607 0.8155733784773568 0 0 0 1.925519742844913 -49.35140515565166 -21.170261012949148 23.98952106309855 3.854711313182581 -13.950298618602128 1.1208229573257291 -19.983273004808627 -54.898705672687775 -8.042062664422014 2.3709652739218403 -0.960919551763956 0 0 0 0 0 0 0 0 0 0 0 0 0 0 0 0 0 0 0 0 0 0 0 0 0 0 0 0 0 0 0 0 0 0 0 0 0 0 0 0 0 0 0 0 0 0 1.5275236235667615 0 0 0 0 0 0 0 0 0 0 0 0 0 -1.720660391615206 -49.689186018857 21.28240785906019 -24.00341352395708 3.894901946163164 14.36034514499708 -1.2012135618064579 -19.930543294436912 54.412736600818114 7.81598690285904 2.711320087967944 1.1862939055084694 0 0 0 0 0 0 0 0 0 0 0 0 0 0 0 0 0 0 0 0 0 0 0 0 0 0 0 0 0 0 0 0 0 0 0 0 0 0 0 0 0 0 0 0 0
0.08787243480242343 -6.387723711040145 0.9188629489826009 0 30.057495832056304 0 -178.57460524439043 -50.70544960015511 -150.80126831210697 170.84415155560643 76.85215302305127 -175.0757087983556 9.704512794774514 -10.667578008856564 -3.7704362279370014 0 0 0 178.5997783528621 -50.67770812162429 150.77267676378585 -170.75552238027652 76.84307278934385 175.12083538480044 -9.715941186949536 -10.664210604027275 3.774558402702972 0 0 0 0 -11.162042497236536 0 -0.3334346629146381 9.28808295327314 0.8198425875996553 0 0 0 2.5407113074857053 -48.9539859368596 -21.8112778932004 23.98952106309855 3.854711313182581 -13.950298618602128 1.0894621725446656 -20.03971003770371 -54.421222327270605 -6.413689787964842 3.031725713158433 -0.15936738192392624 0 0 0 0 0 0 0 0 0 0 0 0 0 0 0 0 0 0 0 0 0 0 0 0 0 0 0 0 0 0 0 0 0 0 0 0 0 0 0 0 0 0 0 0 0 0 1.9043967041216845 0 0 0.29414600337542424 0 0 0 0 0 0 0 0 0 0 -2.2808542888396555 -49.249354522805746 21.724425281519764 -24.00341352395708 3.894901946163164 14.36034514499708 -1.1877822261556767 -19.965131894096817 54.04180884991345 6.234703917800788 3.352882658899702 0.3336637938864726 0 0 0 0 0 0 0 0 0 0 0 0 0 0 0 0 0 0 0 0 0 0 0 0 0 0 0 0 0 0 0 0 0 0 0 0 0 0 0 0 0 0 0 0 0
0.08787243480242343 -6.436452475033935 0.9452877784463118 0 29.11481320693205 0 -178.09326550439542 -51.13895293879336 -150.8250950877803 170.62239166403046 76.22668967654135 -175.2800310341782 9.197088364463124 -10.880411395915411 -3.5857776576783067 0 0 0 178.11908157899566 -51.11137627338214 150.79571122692946 -170.53685417882608 76.21695330436445 175.32147328365957 -9.209145283899193 -10.877848407971696 3.5898664062306294 0 0 0 0 -11.883447276849871 0 -0.33268975485798113 8.566756501398249 0.8240957195463073 0 0 0 3.144537632385539 -48.551968415186295 -22.441014845064547 23.98952106309855 3.854711313182581 -13.950301104721419 1.0575859340663867 -20.09592007364194 -53.94339614958642 -4.767729787964225 3.6722137430124877 0.6649460279176557 0 0 0 0 0 0 0 0 0 0 0 0 0 0 0 0 0 0 0 0 0 0 0 0 0 0 0 0 0 0 0 0 0 0 0 0 0 0 0 0 0 0 0 0 0 0 2.281554627910154 0 0 0.5884269786217017 0 0 0 0 0 0 0 0 0 0 -2.831148540445016 -48.80658265296311 22.156162918704013 -24.00341352395708 3.894901946163164 14.36034514499708 -1.1740999352831398 -19.99964085870654 53.670719568896644 4.635945251232479 3.9732679441786267 -0.5408242700687884 0 0 0 0 0 0 0 0 0 0 0 0 0 0 0 0 0 0 0 0 0 0 0 0 0 0 0 0 0 0 0 0 0 0 0 0 0 0 0 0 0 0 0 0 0
0.08787243480242343 -6.485182044204536 0.9717128763022943 0 28.17124033235583 0 -177.60684972426026 -51.572510365676436 -150.85502417269828 170.41899014279772 75.6007977578511 -175.465960315534 8.688437469105219 -11.09169160335193 -3.399010500492348 0 0 0 177.63332312308404 -51.545121975274654 150.82484590706343 -170.33621644722143 75.5904329288449 175.50405106418836 -8.701116894177819 -11.089936767750128 3.4030603735495997 0 0 0 0 -12.605254254605391 0 -0.33200004629232205 7.84502705998411 0.8283340102313771 0 0 0 3.7371474065516703 -48.14546768872429 -23.059613190894897 23.98952106309855 3.854711313182581 -13.950298618602128 1.0251922505883193 -20.15188837140039 -53.465258987296856 -3.104865208501224 4.291117418672693 1.511370677696399 0 0 0 0 0 0 0 0 0 0 0 0 0 0 0 0 0 0 0 0 0 0 0 0 0 0 0 0 0 0 0 0 0 0 0 0 0 0 0 0 0 0 0 0 0 0 2.658989697995626 0 0 0.8828390182215451 0 0 0 0 0 0 0 0 0 0 -3.3717820330483423 -48.36098859259162 22.577850262455684 -24.00341352395708 3.894902801913314 14.360347651992466 -1.1601801960272318 -20.03407014844947 53.29948962337268 3.0204191248377055 4.5712179095882295 -1.436482182499172 0 0 0 0 0 0 0 0 0 0 0 0 0 0 0 0 0 0 0 0 0 0 0 0 0 0 0 0 0 0 0 0 0 0 0 0 0 0 0 0 0 0 0 0 0
0.08787216641015214 -6.533911076590597 0.9981377057660055 0 27.226890166392845 0 -177.11519102927645 -52.00604876276245 -150.89122197186717 170.2316261299861 74.97452556025604 -175.6358234923079 8.178574801051077 -11.301394660630484 -3.2101509672674116 0 0 0 177.14233673804213 -51.978834066099914 150.8602392916764 -170.15141452187217 74.96350366238399 175.67075781313977 -8.19187380107584 -11.300447388730264 3.2141555259022616 0 0 0 0 -13.327405431516494 0 -0.33136406272381713 7.1229529554186595 0.8325585807155177 0 0 0 4.318723509004198 -47.73465078754815 -23.66725537427668 23.98952106309855 3.854711313182581 -13.950298618602128 0.9922795223038213 -20.207614724697677 -52.98680498214926 -1.4258823604761024 4.887160528803653 2.379155576932588 0 0 0 0 0 0 0 0 0 0 0 0 0 0 0 0 0 0 0 0 0 0 0 0 0 0 0 0 0 0 0 0 0 0 0 0 0 0 0 0 0 0 0 0 0 0 3.0366945979884656 0 0 1.177378020700701 0 0 0 0 0 0 0 0 0 0 -3.902980630674552 -47.91267036161939 22.989711048314504 -24.003410396973297 3.894901090413015 14.360344315984818 -1.1460252032319307 -20.068425177195312 52.92814133285995 1.388926415019406 5.145507095072889 -2.3525227702000517 0 0 0 0 0 0 0 0 0 0 0 0 0 0 0 0 0 0 0 0 0 0 0 0 0 0 0 0 0 0 0 0 0 0 0 0 0 0 0 0 0 0 0 0 0
0.08787216641015214 -6.582640377368929 1.0245628036219878 0 26.281902577592753 0 -176.61810529631742 -52.43951432897359 -150.9338945405085 170.05844631179792 74.34791064319775 -175.79146919506542 7.667517782714523 -11.509488582050277 -3.0192121199423743 0 0 0 176.6459479330453 -52.412480791982745 150.90208328645295 -169.98053988764892 74.33626941856473 175.82350872775365 -7.681432030910085 -11.509347432472618 3.023164233813003 0 0 0 0 -14.049845677701539 0 -0.3307834962864863 6.400592874421948 0.836770166687651 0 0 0 4.88943218226107 -47.31966400616251 -24.264112013812305 23.98952106309855 3.854711313182581 -13.950298618602128 0.9588649264016936 -20.26308618531758 -52.50809598908275 0.2683457877173295 5.459107279716802 3.2674561879862676 0 0 0 0 0 0 0 0 0 0 0 0 0 0 0 0 0 0 0 0 0 0 0 0 0 0 0 0 0 0 0 0 0 0 0 0 0 0 0 0 0 0 0 0 0 0 3.4146616403981453 0 0 1.4720410237561279 0 0 0 0 0 0 0 0 0 0 -4.424960690226401 -47.461716765757146 23.391963966518524 -24.00341352395708 3.894901946163164 14.36034514499708 -1.1316166682135749 -20.102691361944036 52.55663663828345 -0.2576352190121954 5.694966403949189 -3.288067223324557 0 0 0 0 0 0 0 0 0 0 0 0 0 0 0 0 0 0 0 0 0 0 0 0 0 0 0 0 0 0 0 0 0 0 0 0 0 0 0 0 0 0 0 0 0
0.08787216641015214 -6.6313694097549885 1.0509876330856989 0 25.33639260764421 0 -176.1154089018572 -52.87281691911846 -150.98323544766484 169.89777322068716 73.72105497845918 -175.93458198688523 7.1552821252040735 -11.715938569336187 -2.8262069333732462 0 0 0 176.14396886137752 -52.84600060462232 150.9505730722603 -169.82199821871228 73.7087667381889 175.9638911658657 -7.1698081800851 -11.716608219541618 2.8301026094997095 0 0 0 0 -14.77251118741034 0 -0.33025698328322767 5.678002538564777 0.8409701479547484 0 0 0 5.449443680684403 -46.90060862676661 -24.85035126400495 23.98951949951219 3.8547104574730886 -13.950297788131623 0.9249304613888506 -20.318302532231606 -52.02909272298381 1.9768420524895172 6.005779358149422 4.175325783199808 0 0 0 0 0 0 0 0 0 0 0 0 0 0 0 0 0 0 0 0 0 0 0 0 0 0 0 0 0 0 0 0 0 0 0 0 0 0 0 0 0 0 0 0 0 0 3.792881692473099 0 0 1.766824014975387 0 0 0 0 0 0 0 0 0 0 -4.937963719022459 -47.008262861929104 23.784847600527243 -24.00341352395708 3.894901946163164 14.36034514499708 -1.1169760668403903 -20.136870475370014 52.18503127958486 -1.9182785263173203 6.2184734082824535 -4.242137833106685 0 0 0 0 0 0 0 0 0 0 0 0 0 0 0 0 0 0 0 0 0 0 0 0 0 0 0 0 0 0 0 0 0 0 0 0 0 0 0 0 0 0 0 0 0
0.08787216641015214 -6.68009871053332 1.0774127309416812 0 24.390500584877717 0 -175.60690675016593 -53.30594247931845 -151.0394501168105 169.7482530971399 73.09398418081503 -176.06651291045753 6.641881742313254 -11.92071834505308 -2.6311516868914793 0 0 0 175.636205744894 -53.27932348271215 151.00592267652013 -169.67441843974902 73.08107091564983 176.09328469130944 -6.6570182947233025 -11.922203500098538 2.6349853065492037 0 0 0 0 -15.495354029672768 0 -0.32978315863049495 4.955240402027753 0.8451595286770137 0 0 0 5.998941392101696 -46.47764673449705 -25.426152527876855 23.989522626684877 3.8547104574730886 -13.950298618602128 0.8904948695655769 -20.37325990092409 -51.54983974051309 3.698540214617456 6.526061809145165 5.101721387890194 0 0 0 0 0 0 0 0 0 0 0 0 0 0 0 0 0 0 0 0 0 0 0 0 0 0 0 0 0 0 0 0 0 0 0 0 0 0 0 0 0 0 0 0 0 0 4.171347593031013 0 0 2.061721929958254 0 0 0 0 0 0 0 0 0 0 -5.442188640210995 -46.55238370701661 24.168555897822873 -24.00341352395708 3.894901946163164 14.36034514499708 -1.1020879106286063 -20.170964291654634 51.81329091407907 -3.5919218163026194 6.7149721169968375 -5.213666265981121 0 0 0 0 0 0 0 0 0 0 0 0 0 0 0 0 0 0 0 0 0 0 0 0 0 0 0 0 0 0 0 0 0 0 0 0 0 0 0 0 0 0 0 0 0
